<svg width="41" height="63" viewBox="0 0 41 63" fill="none" xmlns="http://www.w3.org/2000/svg">
<path fill-rule="evenodd" clip-rule="evenodd" d="M11.5714 49.0932C22.8998 40.3291 29.914 25.0147 25.1183 8.04499C24.401 5.55041 25.4888 3.43087 27.9593 3.50173C30.4239 3.56647 33.3034 6.07816 33.911 8.90502C38.0946 27.7353 29.7866 44.6721 16.4813 54.5221C14.4584 56.0308 11.8382 55.7108 10.6704 54.1312C9.49962 52.5406 9.90124 50.4101 11.5714 49.0932Z" fill="#00B35F"/>
<path fill-rule="evenodd" clip-rule="evenodd" d="M1.95915 42.075C9.62209 35.5933 14.2778 24.8814 11.2795 13.0029C10.6495 10.5501 11.6975 8.42406 14.163 8.50208C16.6197 8.57157 19.4988 11.1877 19.9728 14.0744C22.347 27.6852 16.471 39.9039 6.9932 47.4279C4.95309 49.0505 2.3242 48.7311 1.17902 47.1426C0.0264922 45.542 0.376815 43.4391 1.95915 42.075Z" fill="#00B35F"/>
<path fill-rule="evenodd" clip-rule="evenodd" d="M1.00401 43.3226C5.35101 35.8773 5.35101 27.2419 1.00401 19.7966C0.0260051 18.1009 0.473005 15.9792 2.33001 14.9811C4.17651 13.9842 7.07151 14.8471 8.34051 17.0256C13.7105 26.2245 13.7105 36.8935 8.34051 46.0937C7.07001 48.2721 4.17651 49.135 2.33001 48.1381C0.473005 47.1412 0.0260051 45.0183 1.00401 43.3226Z" fill="#00CE6D"/>
<path fill-rule="evenodd" clip-rule="evenodd" d="M10.5987 50.1861C18.5474 38.1678 18.5474 23.8314 10.5987 11.8143C9.47369 10.1022 9.95027 7.93892 11.8925 6.93597C13.827 5.93301 16.7411 6.71104 18.088 8.75137C27.304 22.6871 27.304 39.3121 18.088 53.2491C16.7411 55.2894 13.827 56.0674 11.8925 55.0632C9.95027 54.0603 9.47369 51.8983 10.5987 50.1861Z" fill="#00CE6D"/>
<path fill-rule="evenodd" clip-rule="evenodd" d="M23.1424 57.2481C34.4395 41.3445 34.4395 22.0953 23.1424 6.19172C21.9518 4.50799 22.4394 2.36839 24.4123 1.38003C26.3788 0.394112 29.2826 1.11623 30.6522 3.04917C43.3394 20.9112 43.3394 42.5298 30.6522 60.3907C29.2826 62.3248 26.3788 63.0469 24.4123 62.0598C22.4394 61.0727 21.9518 58.9331 23.1424 57.2481Z" fill="#00CE6D"/>
</svg>
