<?xml version="1.0" standalone="no"?>
<!DOCTYPE svg PUBLIC "-//W3C//DTD SVG 20010904//EN"
 "http://www.w3.org/TR/2001/REC-SVG-20010904/DTD/svg10.dtd">
<svg version="1.0" xmlns="http://www.w3.org/2000/svg"
 width="260.000000pt" height="260.000000pt" viewBox="0 0 260.000000 260.000000"
 preserveAspectRatio="xMidYMid meet">
<metadata>
Created by potrace 1.11, written by Peter Selinger 2001-2013
</metadata>
<g transform="translate(0.000000,260.000000) scale(0.100000,-0.100000)"
fill="#000000" stroke="none">
<path d="M1665 2459 c-11 -6 -34 -25 -52 -42 -42 -40 -49 -84 -26 -178 15 -61
18 -117 18 -319 0 -273 -6 -316 -73 -515 l-37 -110 -2 50 c-3 72 -22 228 -39
315 -34 177 -136 419 -195 461 -45 32 -123 37 -167 10 -63 -40 -71 -67 -69
-230 2 -206 -32 -332 -131 -495 -34 -57 -37 -59 -43 -36 -4 14 -7 42 -8 63 -2
61 -40 196 -82 294 -32 73 -106 111 -182 93 -46 -10 -73 -32 -98 -82 -23 -44
-24 -70 -5 -106 7 -15 27 -65 42 -112 27 -78 29 -97 29 -225 0 -147 -7 -183
-61 -303 -29 -63 -29 -75 -4 -129 39 -86 143 -110 232 -54 118 75 343 335 425
492 18 34 35 64 39 68 4 3 4 -57 1 -134 -9 -202 -48 -366 -123 -517 -42 -84
-46 -148 -11 -199 28 -42 103 -73 153 -63 100 19 358 321 494 579 43 81 120
268 120 292 0 7 3 13 8 13 11 0 3 -170 -14 -300 -28 -219 -82 -399 -186 -623
-46 -97 -50 -112 -43 -154 7 -50 57 -113 89 -113 9 0 16 -4 16 -10 0 -15 63
-12 96 5 50 24 81 66 133 178 182 390 258 870 201 1264 -31 205 -46 273 -100
434 -77 229 -151 384 -201 420 -36 26 -114 35 -144 18z"/>
</g>
</svg>
